<?xml version="1.0" encoding="UTF-8"?>
<svg id="Layer_1" data-name="Layer 1" xmlns="http://www.w3.org/2000/svg" xmlns:xlink="http://www.w3.org/1999/xlink" viewBox="0 0 720 720">
  <defs>
    <style>
      .cls-1 {
        fill: url(#linear-gradient-36);
      }

      .cls-1, .cls-2, .cls-3, .cls-4, .cls-5, .cls-6, .cls-7, .cls-8, .cls-9, .cls-10, .cls-11, .cls-12, .cls-13, .cls-14, .cls-15, .cls-16, .cls-17, .cls-18, .cls-19, .cls-20, .cls-21, .cls-22, .cls-23, .cls-24, .cls-25, .cls-26, .cls-27, .cls-28, .cls-29, .cls-30, .cls-31, .cls-32, .cls-33, .cls-34, .cls-35, .cls-36, .cls-37, .cls-38, .cls-39, .cls-40, .cls-41, .cls-42, .cls-43 {
        stroke-miterlimit: 10;
      }

      .cls-1, .cls-3, .cls-4, .cls-5, .cls-6, .cls-8, .cls-9, .cls-10, .cls-11, .cls-12, .cls-13, .cls-14, .cls-15, .cls-17, .cls-18, .cls-19, .cls-20, .cls-22, .cls-23, .cls-25, .cls-26, .cls-27, .cls-28, .cls-29, .cls-32, .cls-33, .cls-34, .cls-35, .cls-36, .cls-37, .cls-38, .cls-39, .cls-40, .cls-41, .cls-42, .cls-43 {
        stroke: #000;
      }

      .cls-2 {
        stroke: url(#linear-gradient-2);
        stroke-width: 7px;
      }

      .cls-2, .cls-7, .cls-16, .cls-21, .cls-24, .cls-30, .cls-31 {
        fill: none;
      }

      .cls-3 {
        fill: url(#linear-gradient-34);
      }

      .cls-4 {
        fill: url(#linear-gradient-55);
      }

      .cls-44 {
        fill: url(#linear-gradient-15);
      }

      .cls-45 {
        fill: url(#linear-gradient-13);
      }

      .cls-5 {
        fill: url(#linear-gradient-45);
      }

      .cls-6 {
        fill: url(#linear-gradient-54);
      }

      .cls-7 {
        stroke: url(#linear-gradient-5);
      }

      .cls-7, .cls-16, .cls-24 {
        stroke-width: 2px;
      }

      .cls-8 {
        fill: url(#linear-gradient-47);
      }

      .cls-9 {
        fill: url(#linear-gradient-37);
      }

      .cls-46 {
        fill: url(#linear-gradient-25);
      }

      .cls-47 {
        fill: url(#linear-gradient-10);
      }

      .cls-48 {
        fill: url(#linear-gradient-12);
      }

      .cls-10 {
        fill: url(#linear-gradient-58);
      }

      .cls-11 {
        fill: url(#linear-gradient-39);
      }

      .cls-12 {
        fill: url(#linear-gradient-28);
      }

      .cls-13 {
        fill: url(#linear-gradient-53);
      }

      .cls-49 {
        fill: url(#linear-gradient-52);
      }

      .cls-14 {
        fill: url(#linear-gradient-50);
      }

      .cls-15 {
        fill: url(#linear-gradient-48);
      }

      .cls-50 {
        fill: url(#linear-gradient-26);
      }

      .cls-16 {
        stroke: url(#linear-gradient-3);
      }

      .cls-17 {
        fill: url(#linear-gradient-64);
      }

      .cls-18 {
        fill: url(#linear-gradient-56);
      }

      .cls-19 {
        fill: url(#linear-gradient-59);
      }

      .cls-51 {
        mix-blend-mode: multiply;
      }

      .cls-51, .cls-21, .cls-52, .cls-30, .cls-53 {
        isolation: isolate;
      }

      .cls-51, .cls-54 {
        fill: #231f20;
      }

      .cls-20 {
        fill: url(#linear-gradient-63);
      }

      .cls-21 {
        stroke-width: 4px;
      }

      .cls-21, .cls-30 {
        stroke: #fff;
      }

      .cls-21, .cls-30, .cls-53 {
        mix-blend-mode: soft-light;
      }

      .cls-55 {
        fill: url(#linear-gradient-22);
      }

      .cls-56 {
        fill: url(#linear-gradient-24);
      }

      .cls-22 {
        fill: url(#linear-gradient-49);
      }

      .cls-57 {
        fill: url(#linear-gradient-33);
      }

      .cls-58 {
        fill: url(#linear-gradient-8);
      }

      .cls-23 {
        fill: url(#linear-gradient-29);
      }

      .cls-24 {
        stroke: url(#linear-gradient-4);
        stroke-dasharray: 6.02 6.02;
      }

      .cls-25 {
        fill: url(#linear-gradient-41);
      }

      .cls-26 {
        fill: url(#linear-gradient-35);
      }

      .cls-27 {
        fill: url(#linear-gradient-31);
      }

      .cls-28 {
        fill: url(#linear-gradient-30);
      }

      .cls-59 {
        fill: url(#linear-gradient-14);
      }

      .cls-29 {
        fill: url(#linear-gradient-60);
      }

      .cls-60 {
        fill: url(#linear-gradient-20);
      }

      .cls-30 {
        stroke-width: 3px;
      }

      .cls-61 {
        fill: url(#linear-gradient-17);
      }

      .cls-62 {
        fill: url(#linear-gradient-7);
      }

      .cls-31 {
        stroke: url(#linear-gradient);
        stroke-width: 6px;
      }

      .cls-63 {
        fill: url(#linear-gradient-9);
      }

      .cls-64 {
        fill: url(#linear-gradient-11);
      }

      .cls-65 {
        fill: url(#linear-gradient-19);
      }

      .cls-66 {
        fill: url(#linear-gradient-6);
      }

      .cls-32 {
        fill: url(#linear-gradient-38);
      }

      .cls-33 {
        fill: url(#linear-gradient-40);
      }

      .cls-34 {
        fill: url(#linear-gradient-51);
      }

      .cls-35 {
        fill: url(#linear-gradient-44);
      }

      .cls-67 {
        fill: url(#linear-gradient-21);
      }

      .cls-36 {
        fill: url(#linear-gradient-61);
      }

      .cls-37 {
        fill: url(#linear-gradient-43);
      }

      .cls-38 {
        fill: url(#linear-gradient-42);
      }

      .cls-39 {
        fill: url(#linear-gradient-32);
      }

      .cls-40 {
        fill: url(#linear-gradient-27);
      }

      .cls-41 {
        fill: url(#linear-gradient-62);
      }

      .cls-68 {
        fill: url(#linear-gradient-16);
      }

      .cls-53 {
        fill: #fff;
      }

      .cls-69 {
        fill: url(#linear-gradient-23);
      }

      .cls-42 {
        fill: url(#linear-gradient-57);
      }

      .cls-43 {
        fill: url(#linear-gradient-46);
      }

      .cls-70 {
        fill: url(#linear-gradient-18);
      }
    </style>
    <linearGradient id="linear-gradient" x1="141.68" y1="-1559.47" x2="574.3" y2="-1559.47" gradientTransform="translate(0 -1253.11) scale(1 -1)" gradientUnits="userSpaceOnUse">
      <stop offset="0" stop-color="#6d4f31"/>
      <stop offset=".63" stop-color="#bb8d36"/>
      <stop offset="1" stop-color="#ba7e40"/>
    </linearGradient>
    <linearGradient id="linear-gradient-2" x1="156.66" y1="-1559.47" x2="559.32" y2="-1559.47" gradientTransform="translate(0 -1253.11) scale(1 -1)" gradientUnits="userSpaceOnUse">
      <stop offset="0" stop-color="#6d4f31"/>
      <stop offset=".63" stop-color="#bb8d36"/>
      <stop offset="1" stop-color="#ba7e40"/>
    </linearGradient>
    <linearGradient id="linear-gradient-3" x1="168.55" y1="-1559.47" x2="547.43" y2="-1559.47" gradientTransform="translate(0 -1253.11) scale(1 -1)" gradientUnits="userSpaceOnUse">
      <stop offset="0" stop-color="#6d4f31"/>
      <stop offset=".63" stop-color="#bb8d36"/>
      <stop offset="1" stop-color="#ba7e40"/>
    </linearGradient>
    <linearGradient id="linear-gradient-4" x1="178.66" y1="-1559.47" x2="537.32" y2="-1559.47" gradientTransform="translate(0 -1253.11) scale(1 -1)" gradientUnits="userSpaceOnUse">
      <stop offset="0" stop-color="#6d4f31"/>
      <stop offset=".63" stop-color="#bb8d36"/>
      <stop offset="1" stop-color="#ba7e40"/>
    </linearGradient>
    <linearGradient id="linear-gradient-5" x1="151.86" y1="-1559.47" x2="564.12" y2="-1559.47" gradientTransform="translate(0 -1253.11) scale(1 -1)" gradientUnits="userSpaceOnUse">
      <stop offset="0" stop-color="#6d4f31"/>
      <stop offset=".63" stop-color="#bb8d36"/>
      <stop offset="1" stop-color="#ba7e40"/>
    </linearGradient>
    <linearGradient id="linear-gradient-6" x1="345.18" y1="-1586.61" x2="376.32" y2="-1586.61" gradientTransform="translate(0 -1253.11) scale(1 -1)" gradientUnits="userSpaceOnUse">
      <stop offset="0" stop-color="#6d4f31"/>
      <stop offset=".63" stop-color="#bb8d36"/>
      <stop offset="1" stop-color="#ba7e40"/>
    </linearGradient>
    <linearGradient id="linear-gradient-7" x1="278.65" y1="-1774.82" x2="313.2" y2="-1774.82" gradientTransform="translate(0 -1253.11) scale(1 -1)" gradientUnits="userSpaceOnUse">
      <stop offset=".1" stop-color="#957a45"/>
      <stop offset=".29" stop-color="#aa7d46"/>
      <stop offset=".63" stop-color="#bb8d36"/>
      <stop offset="1" stop-color="#ba7e40"/>
    </linearGradient>
    <linearGradient id="linear-gradient-8" x1="315.11" y1="-1774.82" x2="374.3" y2="-1774.82" gradientTransform="translate(0 -1253.11) scale(1 -1)" gradientUnits="userSpaceOnUse">
      <stop offset=".1" stop-color="#957a45"/>
      <stop offset=".29" stop-color="#aa7d46"/>
      <stop offset=".63" stop-color="#bb8d36"/>
      <stop offset="1" stop-color="#ba7e40"/>
    </linearGradient>
    <linearGradient id="linear-gradient-9" x1="374.07" y1="-1774.86" x2="442.13" y2="-1774.86" gradientTransform="translate(0 -1253.11) scale(1 -1)" gradientUnits="userSpaceOnUse">
      <stop offset=".1" stop-color="#957a45"/>
      <stop offset=".29" stop-color="#aa7d46"/>
      <stop offset=".63" stop-color="#bb8d36"/>
      <stop offset="1" stop-color="#ba7e40"/>
    </linearGradient>
    <linearGradient id="linear-gradient-10" x1="284.4" y1="-1693.33" x2="326.37" y2="-1693.33" gradientTransform="translate(0 -1253.11) scale(1 -1)" gradientUnits="userSpaceOnUse">
      <stop offset="0" stop-color="#6d4f31"/>
      <stop offset=".63" stop-color="#bb8d36"/>
      <stop offset="1" stop-color="#ba7e40"/>
    </linearGradient>
    <linearGradient id="linear-gradient-11" x1="305.41" y1="-1704.97" x2="338.55" y2="-1704.97" gradientTransform="translate(0 -1253.11) scale(1 -1)" gradientUnits="userSpaceOnUse">
      <stop offset="0" stop-color="#6d4f31"/>
      <stop offset=".63" stop-color="#bb8d36"/>
      <stop offset="1" stop-color="#ba7e40"/>
    </linearGradient>
    <linearGradient id="linear-gradient-12" x1="324.37" y1="-1711.16" x2="349.64" y2="-1711.16" gradientTransform="translate(0 -1253.11) scale(1 -1)" gradientUnits="userSpaceOnUse">
      <stop offset="0" stop-color="#6d4f31"/>
      <stop offset=".63" stop-color="#bb8d36"/>
      <stop offset="1" stop-color="#ba7e40"/>
    </linearGradient>
    <linearGradient id="linear-gradient-13" x1="345.53" y1="-1715.48" x2="371.98" y2="-1715.48" gradientTransform="translate(0 -1253.11) scale(1 -1)" gradientUnits="userSpaceOnUse">
      <stop offset="0" stop-color="#6d4f31"/>
      <stop offset=".63" stop-color="#bb8d36"/>
      <stop offset="1" stop-color="#ba7e40"/>
    </linearGradient>
    <linearGradient id="linear-gradient-14" x1="367.89" y1="-1710.77" x2="392.61" y2="-1710.77" gradientTransform="translate(0 -1253.11) scale(1 -1)" gradientUnits="userSpaceOnUse">
      <stop offset="0" stop-color="#6d4f31"/>
      <stop offset=".63" stop-color="#bb8d36"/>
      <stop offset="1" stop-color="#ba7e40"/>
    </linearGradient>
    <linearGradient id="linear-gradient-15" x1="378.07" y1="-1705.61" x2="411.98" y2="-1705.61" gradientTransform="translate(0 -1253.11) scale(1 -1)" gradientUnits="userSpaceOnUse">
      <stop offset="0" stop-color="#6d4f31"/>
      <stop offset=".63" stop-color="#bb8d36"/>
      <stop offset="1" stop-color="#ba7e40"/>
    </linearGradient>
    <linearGradient id="linear-gradient-16" x1="391.15" y1="-1695.78" x2="432.36" y2="-1695.78" gradientTransform="translate(0 -1253.11) scale(1 -1)" gradientUnits="userSpaceOnUse">
      <stop offset="0" stop-color="#6d4f31"/>
      <stop offset=".63" stop-color="#bb8d36"/>
      <stop offset="1" stop-color="#ba7e40"/>
    </linearGradient>
    <linearGradient id="linear-gradient-17" x1="325.17" y1="-1672.78" x2="335.27" y2="-1672.78" gradientTransform="translate(0 -1253.11) scale(1 -1)" gradientUnits="userSpaceOnUse">
      <stop offset="0" stop-color="#6d4f31"/>
      <stop offset=".63" stop-color="#bb8d36"/>
      <stop offset="1" stop-color="#ba7e40"/>
    </linearGradient>
    <linearGradient id="linear-gradient-18" x1="336.39" y1="-1671.22" x2="343.98" y2="-1671.22" gradientTransform="translate(0 -1253.11) scale(1 -1)" gradientUnits="userSpaceOnUse">
      <stop offset="0" stop-color="#6d4f31"/>
      <stop offset=".63" stop-color="#bb8d36"/>
      <stop offset="1" stop-color="#ba7e40"/>
    </linearGradient>
    <linearGradient id="linear-gradient-19" x1="346.56" y1="-1671.91" x2="353.99" y2="-1671.91" gradientTransform="translate(0 -1253.11) scale(1 -1)" gradientUnits="userSpaceOnUse">
      <stop offset="0" stop-color="#6d4f31"/>
      <stop offset=".63" stop-color="#bb8d36"/>
      <stop offset="1" stop-color="#ba7e40"/>
    </linearGradient>
    <linearGradient id="linear-gradient-20" x1="381.94" y1="-1672.78" x2="392.04" y2="-1672.78" gradientTransform="translate(0 -1253.11) scale(1 -1)" gradientUnits="userSpaceOnUse">
      <stop offset="0" stop-color="#6d4f31"/>
      <stop offset=".63" stop-color="#bb8d36"/>
      <stop offset="1" stop-color="#ba7e40"/>
    </linearGradient>
    <linearGradient id="linear-gradient-21" x1="373.24" y1="-1671.22" x2="380.82" y2="-1671.22" gradientTransform="translate(0 -1253.11) scale(1 -1)" gradientUnits="userSpaceOnUse">
      <stop offset="0" stop-color="#6d4f31"/>
      <stop offset=".63" stop-color="#bb8d36"/>
      <stop offset="1" stop-color="#ba7e40"/>
    </linearGradient>
    <linearGradient id="linear-gradient-22" x1="363.22" y1="-1671.91" x2="370.65" y2="-1671.91" gradientTransform="translate(0 -1253.11) scale(1 -1)" gradientUnits="userSpaceOnUse">
      <stop offset="0" stop-color="#6d4f31"/>
      <stop offset=".63" stop-color="#bb8d36"/>
      <stop offset="1" stop-color="#ba7e40"/>
    </linearGradient>
    <linearGradient id="linear-gradient-23" x1="336.18" y1="-1645.56" x2="352.49" y2="-1645.56" gradientTransform="translate(0 -1253.11) scale(1 -1)" gradientUnits="userSpaceOnUse">
      <stop offset="0" stop-color="#6d4f31"/>
      <stop offset=".63" stop-color="#bb8d36"/>
      <stop offset="1" stop-color="#ba7e40"/>
    </linearGradient>
    <linearGradient id="linear-gradient-24" x1="361.84" y1="-1646.7" x2="383.16" y2="-1646.7" gradientTransform="translate(0 -1253.11) scale(1 -1)" gradientUnits="userSpaceOnUse">
      <stop offset="0" stop-color="#6d4f31"/>
      <stop offset=".63" stop-color="#bb8d36"/>
      <stop offset="1" stop-color="#ba7e40"/>
    </linearGradient>
    <linearGradient id="linear-gradient-25" x1="333.56" y1="-1645.04" x2="340.18" y2="-1645.04" gradientTransform="translate(0 -1253.11) scale(1 -1)" gradientUnits="userSpaceOnUse">
      <stop offset="0" stop-color="#6d4f31"/>
      <stop offset=".63" stop-color="#bb8d36"/>
      <stop offset="1" stop-color="#ba7e40"/>
    </linearGradient>
    <linearGradient id="linear-gradient-26" x1="376.1" y1="-1648.93" x2="382.29" y2="-1648.93" gradientTransform="translate(0 -1253.11) scale(1 -1)" gradientUnits="userSpaceOnUse">
      <stop offset="0" stop-color="#6d4f31"/>
      <stop offset=".63" stop-color="#bb8d36"/>
      <stop offset="1" stop-color="#ba7e40"/>
    </linearGradient>
    <linearGradient id="linear-gradient-27" x1="-1786.88" y1="-1584.37" x2="-1753.29" y2="-1584.37" gradientTransform="translate(-1394.04 -1253.11) rotate(-180)" gradientUnits="userSpaceOnUse">
      <stop offset="0" stop-color="#6d4f31"/>
      <stop offset=".63" stop-color="#bb8d36"/>
      <stop offset="1" stop-color="#ba7e40"/>
    </linearGradient>
    <linearGradient id="linear-gradient-28" x1="-1972.6" y1="-1505.11" x2="-1785.15" y2="-1505.11" gradientTransform="translate(-1394.04 -1253.11) rotate(-180)" gradientUnits="userSpaceOnUse">
      <stop offset="0" stop-color="#6d4f31"/>
      <stop offset=".63" stop-color="#bb8d36"/>
      <stop offset="1" stop-color="#ba7e40"/>
    </linearGradient>
    <linearGradient id="linear-gradient-29" x1="-1993.46" y1="-1509.68" x2="-1896.68" y2="-1509.68" gradientTransform="translate(-1394.04 -1253.11) rotate(-180)" gradientUnits="userSpaceOnUse">
      <stop offset="0" stop-color="#6d4f31"/>
      <stop offset=".63" stop-color="#bb8d36"/>
      <stop offset="1" stop-color="#ba7e40"/>
    </linearGradient>
    <linearGradient id="linear-gradient-30" x1="-1996.7" y1="-1550.83" x2="-1888.14" y2="-1550.83" gradientTransform="translate(-1394.04 -1253.11) rotate(-180)" gradientUnits="userSpaceOnUse">
      <stop offset="0" stop-color="#6d4f31"/>
      <stop offset=".63" stop-color="#bb8d36"/>
      <stop offset="1" stop-color="#ba7e40"/>
    </linearGradient>
    <linearGradient id="linear-gradient-31" x1="-1869.31" y1="-1583.34" x2="-1802.72" y2="-1583.34" gradientTransform="translate(-1394.04 -1253.11) rotate(-180)" gradientUnits="userSpaceOnUse">
      <stop offset="0" stop-color="#6d4f31"/>
      <stop offset=".63" stop-color="#bb8d36"/>
      <stop offset="1" stop-color="#ba7e40"/>
    </linearGradient>
    <linearGradient id="linear-gradient-32" x1="-1904.44" y1="-1581.25" x2="-1879.78" y2="-1581.25" gradientTransform="translate(-1394.04 -1253.11) rotate(-180)" gradientUnits="userSpaceOnUse">
      <stop offset="0" stop-color="#6d4f31"/>
      <stop offset=".63" stop-color="#bb8d36"/>
      <stop offset="1" stop-color="#ba7e40"/>
    </linearGradient>
    <linearGradient id="linear-gradient-33" x1="-1887.15" y1="-1595.9" x2="-1887.1" y2="-1595.9" gradientTransform="translate(-1394.04 -1253.11) rotate(-180)" gradientUnits="userSpaceOnUse">
      <stop offset="0" stop-color="#6d4f31"/>
      <stop offset=".63" stop-color="#bb8d36"/>
      <stop offset="1" stop-color="#ba7e40"/>
    </linearGradient>
    <linearGradient id="linear-gradient-34" x1="-1895.31" y1="-1589.62" x2="-1872.26" y2="-1589.62" gradientTransform="translate(-1394.04 -1253.11) rotate(-180)" gradientUnits="userSpaceOnUse">
      <stop offset="0" stop-color="#6d4f31"/>
      <stop offset=".63" stop-color="#bb8d36"/>
      <stop offset="1" stop-color="#ba7e40"/>
    </linearGradient>
    <linearGradient id="linear-gradient-35" x1="-1883.6" y1="-1598.05" x2="-1859.94" y2="-1598.05" gradientTransform="translate(-1394.04 -1253.11) rotate(-180)" gradientUnits="userSpaceOnUse">
      <stop offset="0" stop-color="#6d4f31"/>
      <stop offset=".63" stop-color="#bb8d36"/>
      <stop offset="1" stop-color="#ba7e40"/>
    </linearGradient>
    <linearGradient id="linear-gradient-36" x1="-1867.05" y1="-1607.11" x2="-1845.36" y2="-1607.11" gradientTransform="translate(-1394.04 -1253.11) rotate(-180)" gradientUnits="userSpaceOnUse">
      <stop offset="0" stop-color="#6d4f31"/>
      <stop offset=".63" stop-color="#bb8d36"/>
      <stop offset="1" stop-color="#ba7e40"/>
    </linearGradient>
    <linearGradient id="linear-gradient-37" x1="-1956.59" y1="-1592" x2="-1896.68" y2="-1592" gradientTransform="translate(-1394.04 -1253.11) rotate(-180)" gradientUnits="userSpaceOnUse">
      <stop offset="0" stop-color="#6d4f31"/>
      <stop offset=".63" stop-color="#bb8d36"/>
      <stop offset="1" stop-color="#ba7e40"/>
    </linearGradient>
    <linearGradient id="linear-gradient-38" x1="-1934.87" y1="-1609.41" x2="-1878.89" y2="-1609.41" gradientTransform="translate(-1394.04 -1253.11) rotate(-180)" gradientUnits="userSpaceOnUse">
      <stop offset="0" stop-color="#6d4f31"/>
      <stop offset=".63" stop-color="#bb8d36"/>
      <stop offset="1" stop-color="#ba7e40"/>
    </linearGradient>
    <linearGradient id="linear-gradient-39" x1="-1911.39" y1="-1625.49" x2="-1856.65" y2="-1625.49" gradientTransform="translate(-1394.04 -1253.11) rotate(-180)" gradientUnits="userSpaceOnUse">
      <stop offset="0" stop-color="#6d4f31"/>
      <stop offset=".63" stop-color="#bb8d36"/>
      <stop offset="1" stop-color="#ba7e40"/>
    </linearGradient>
    <linearGradient id="linear-gradient-40" x1="-1884.29" y1="-1626.85" x2="-1831.68" y2="-1626.85" gradientTransform="translate(-1394.04 -1253.11) rotate(-180)" gradientUnits="userSpaceOnUse">
      <stop offset="0" stop-color="#6d4f31"/>
      <stop offset=".63" stop-color="#bb8d36"/>
      <stop offset="1" stop-color="#ba7e40"/>
    </linearGradient>
    <linearGradient id="linear-gradient-41" x1="-1859.04" y1="-1631.83" x2="-1821.41" y2="-1631.83" gradientTransform="translate(-1394.04 -1253.11) rotate(-180)" gradientUnits="userSpaceOnUse">
      <stop offset="0" stop-color="#6d4f31"/>
      <stop offset=".63" stop-color="#bb8d36"/>
      <stop offset="1" stop-color="#ba7e40"/>
    </linearGradient>
    <linearGradient id="linear-gradient-42" x1="-1852.82" y1="-1636.28" x2="-1812.97" y2="-1636.28" gradientTransform="translate(-1394.04 -1253.11) rotate(-180)" gradientUnits="userSpaceOnUse">
      <stop offset="0" stop-color="#6d4f31"/>
      <stop offset=".63" stop-color="#bb8d36"/>
      <stop offset="1" stop-color="#ba7e40"/>
    </linearGradient>
    <linearGradient id="linear-gradient-43" x1="-1895.32" y1="-1575.02" x2="-1839.21" y2="-1575.02" gradientTransform="translate(-1394.04 -1253.11) rotate(-180)" gradientUnits="userSpaceOnUse">
      <stop offset="0" stop-color="#6d4f31"/>
      <stop offset=".63" stop-color="#bb8d36"/>
      <stop offset="1" stop-color="#ba7e40"/>
    </linearGradient>
    <linearGradient id="linear-gradient-44" x1="-1828.41" y1="-1628.83" x2="-1795.23" y2="-1628.83" gradientTransform="translate(-1394.04 -1253.11) rotate(-180)" gradientUnits="userSpaceOnUse">
      <stop offset="0" stop-color="#6d4f31"/>
      <stop offset=".63" stop-color="#bb8d36"/>
      <stop offset="1" stop-color="#ba7e40"/>
    </linearGradient>
    <linearGradient id="linear-gradient-45" x1="-1805.14" y1="-1634.66" x2="-1786.35" y2="-1634.66" gradientTransform="translate(-1394.04 -1253.11) rotate(-180)" gradientUnits="userSpaceOnUse">
      <stop offset="0" stop-color="#6d4f31"/>
      <stop offset=".63" stop-color="#bb8d36"/>
      <stop offset="1" stop-color="#ba7e40"/>
    </linearGradient>
    <linearGradient id="linear-gradient-46" x1="327.16" y1="-1584.18" x2="360.75" y2="-1584.18" gradientTransform="translate(0 -1253.11) scale(1 -1)" gradientUnits="userSpaceOnUse">
      <stop offset="0" stop-color="#6d4f31"/>
      <stop offset=".63" stop-color="#bb8d36"/>
      <stop offset="1" stop-color="#ba7e40"/>
    </linearGradient>
    <linearGradient id="linear-gradient-47" x1="141.44" y1="-1505.11" x2="328.89" y2="-1505.11" gradientTransform="translate(0 -1253.11) scale(1 -1)" gradientUnits="userSpaceOnUse">
      <stop offset="0" stop-color="#6d4f31"/>
      <stop offset=".63" stop-color="#bb8d36"/>
      <stop offset="1" stop-color="#ba7e40"/>
    </linearGradient>
    <linearGradient id="linear-gradient-48" x1="120.58" y1="-1509.68" x2="217.36" y2="-1509.68" gradientTransform="translate(0 -1253.11) scale(1 -1)" gradientUnits="userSpaceOnUse">
      <stop offset="0" stop-color="#6d4f31"/>
      <stop offset=".63" stop-color="#bb8d36"/>
      <stop offset="1" stop-color="#ba7e40"/>
    </linearGradient>
    <linearGradient id="linear-gradient-49" x1="117.34" y1="-1550.83" x2="225.9" y2="-1550.83" gradientTransform="translate(0 -1253.11) scale(1 -1)" gradientUnits="userSpaceOnUse">
      <stop offset="0" stop-color="#6d4f31"/>
      <stop offset=".63" stop-color="#bb8d36"/>
      <stop offset="1" stop-color="#ba7e40"/>
    </linearGradient>
    <linearGradient id="linear-gradient-50" x1="244.73" y1="-1583.34" x2="311.32" y2="-1583.34" gradientTransform="translate(0 -1253.11) scale(1 -1)" gradientUnits="userSpaceOnUse">
      <stop offset="0" stop-color="#6d4f31"/>
      <stop offset=".63" stop-color="#bb8d36"/>
      <stop offset="1" stop-color="#ba7e40"/>
    </linearGradient>
    <linearGradient id="linear-gradient-51" x1="209.6" y1="-1581.25" x2="234.26" y2="-1581.25" gradientTransform="translate(0 -1253.11) scale(1 -1)" gradientUnits="userSpaceOnUse">
      <stop offset="0" stop-color="#6d4f31"/>
      <stop offset=".63" stop-color="#bb8d36"/>
      <stop offset="1" stop-color="#ba7e40"/>
    </linearGradient>
    <linearGradient id="linear-gradient-52" x1="226.89" y1="-1595.9" x2="226.94" y2="-1595.9" gradientTransform="translate(0 -1253.11) scale(1 -1)" gradientUnits="userSpaceOnUse">
      <stop offset="0" stop-color="#6d4f31"/>
      <stop offset=".63" stop-color="#bb8d36"/>
      <stop offset="1" stop-color="#ba7e40"/>
    </linearGradient>
    <linearGradient id="linear-gradient-53" x1="218.73" y1="-1589.62" x2="241.78" y2="-1589.62" gradientTransform="translate(0 -1253.11) scale(1 -1)" gradientUnits="userSpaceOnUse">
      <stop offset="0" stop-color="#6d4f31"/>
      <stop offset=".63" stop-color="#bb8d36"/>
      <stop offset="1" stop-color="#ba7e40"/>
    </linearGradient>
    <linearGradient id="linear-gradient-54" x1="230.44" y1="-1598.05" x2="254.1" y2="-1598.05" gradientTransform="translate(0 -1253.11) scale(1 -1)" gradientUnits="userSpaceOnUse">
      <stop offset="0" stop-color="#6d4f31"/>
      <stop offset=".63" stop-color="#bb8d36"/>
      <stop offset="1" stop-color="#ba7e40"/>
    </linearGradient>
    <linearGradient id="linear-gradient-55" x1="246.99" y1="-1607.11" x2="268.68" y2="-1607.11" gradientTransform="translate(0 -1253.11) scale(1 -1)" gradientUnits="userSpaceOnUse">
      <stop offset="0" stop-color="#6d4f31"/>
      <stop offset=".63" stop-color="#bb8d36"/>
      <stop offset="1" stop-color="#ba7e40"/>
    </linearGradient>
    <linearGradient id="linear-gradient-56" x1="157.45" y1="-1592" x2="217.36" y2="-1592" gradientTransform="translate(0 -1253.11) scale(1 -1)" gradientUnits="userSpaceOnUse">
      <stop offset="0" stop-color="#6d4f31"/>
      <stop offset=".63" stop-color="#bb8d36"/>
      <stop offset="1" stop-color="#ba7e40"/>
    </linearGradient>
    <linearGradient id="linear-gradient-57" x1="179.17" y1="-1609.41" x2="235.15" y2="-1609.41" gradientTransform="translate(0 -1253.11) scale(1 -1)" gradientUnits="userSpaceOnUse">
      <stop offset="0" stop-color="#6d4f31"/>
      <stop offset=".63" stop-color="#bb8d36"/>
      <stop offset="1" stop-color="#ba7e40"/>
    </linearGradient>
    <linearGradient id="linear-gradient-58" x1="202.65" y1="-1625.49" x2="257.39" y2="-1625.49" gradientTransform="translate(0 -1253.11) scale(1 -1)" gradientUnits="userSpaceOnUse">
      <stop offset="0" stop-color="#6d4f31"/>
      <stop offset=".63" stop-color="#bb8d36"/>
      <stop offset="1" stop-color="#ba7e40"/>
    </linearGradient>
    <linearGradient id="linear-gradient-59" x1="229.75" y1="-1626.85" x2="282.36" y2="-1626.85" gradientTransform="translate(0 -1253.11) scale(1 -1)" gradientUnits="userSpaceOnUse">
      <stop offset="0" stop-color="#6d4f31"/>
      <stop offset=".63" stop-color="#bb8d36"/>
      <stop offset="1" stop-color="#ba7e40"/>
    </linearGradient>
    <linearGradient id="linear-gradient-60" x1="255" y1="-1631.83" x2="292.63" y2="-1631.83" gradientTransform="translate(0 -1253.11) scale(1 -1)" gradientUnits="userSpaceOnUse">
      <stop offset="0" stop-color="#6d4f31"/>
      <stop offset=".63" stop-color="#bb8d36"/>
      <stop offset="1" stop-color="#ba7e40"/>
    </linearGradient>
    <linearGradient id="linear-gradient-61" x1="261.22" y1="-1636.28" x2="301.07" y2="-1636.28" gradientTransform="translate(0 -1253.11) scale(1 -1)" gradientUnits="userSpaceOnUse">
      <stop offset="0" stop-color="#6d4f31"/>
      <stop offset=".63" stop-color="#bb8d36"/>
      <stop offset="1" stop-color="#ba7e40"/>
    </linearGradient>
    <linearGradient id="linear-gradient-62" x1="218.72" y1="-1575.02" x2="274.83" y2="-1575.02" gradientTransform="translate(0 -1253.11) scale(1 -1)" gradientUnits="userSpaceOnUse">
      <stop offset="0" stop-color="#6d4f31"/>
      <stop offset=".63" stop-color="#bb8d36"/>
      <stop offset="1" stop-color="#ba7e40"/>
    </linearGradient>
    <linearGradient id="linear-gradient-63" x1="285.63" y1="-1628.83" x2="318.82" y2="-1628.83" gradientTransform="translate(0 -1253.11) scale(1 -1)" gradientUnits="userSpaceOnUse">
      <stop offset="0" stop-color="#6d4f31"/>
      <stop offset=".63" stop-color="#bb8d36"/>
      <stop offset="1" stop-color="#ba7e40"/>
    </linearGradient>
    <linearGradient id="linear-gradient-64" x1="308.9" y1="-1634.66" x2="327.69" y2="-1634.66" gradientTransform="translate(0 -1253.11) scale(1 -1)" gradientUnits="userSpaceOnUse">
      <stop offset="0" stop-color="#6d4f31"/>
      <stop offset=".63" stop-color="#bb8d36"/>
      <stop offset="1" stop-color="#ba7e40"/>
    </linearGradient>
  </defs>
  <g class="cls-52">
    <g id="Layer_4" data-name="Layer 4">
      <circle class="cls-31" cx="357.99" cy="306.36" r="213.31"/>
      <circle class="cls-30" cx="357.99" cy="306.36" r="214.27"/>
      <circle class="cls-2" cx="357.99" cy="306.36" r="197.83"/>
      <circle class="cls-16" cx="357.99" cy="306.36" r="188.44"/>
      <circle class="cls-24" cx="357.99" cy="306.36" r="178.33"/>
      <circle class="cls-7" cx="357.99" cy="306.36" r="205.13"/>
      <circle class="cls-21" cx="357.99" cy="306.36" r="198.96"/>
      <path class="cls-66" d="M345.18,272.63l11.31-3.29s.68.09,1.02,1.36-.34,18.51,0,19.43.37,19.89.48,21-.31,20.26-.4,21.02.42,45.45.42,45.45c0,0-.61,15.83,0,17.87s1.07,4.51,1.99,4.09,2.87-6.89,2.62-8.51.02-21.36.02-21.36l-.36-32.34s1.36-25.62,1.7-26.81-1.19-21.03-1.19-22.05-1.7-19.57.68-19.14,11.66,4.43,12.85,4.26c0,0-8.32-6.18-15.74-6.21-7.91-.04-15.4,5.25-15.4,5.25v-.02Z"/>
    </g>
    <g id="Text">
      <g>
        <g>
          <path class="cls-62" d="M278.66,557.71v-.5s-.01-9.11-.01-9.11l3.25-.35c1.43-.15,4.78-.52,5.21-.95.13-.16.45-1,.45-5.34v-39.41c0-4.28-.3-5.25-.47-5.44-.44-.46-3.97-.83-5.3-.96l-3.14-.33v-9.61h34.54v9.61l-3.26.34c-1.44.16-4.82.52-5.26.97-.18.19-.47,1.15-.47,5.42v39.41c0,4.33.32,5.17.45,5.33.43.42,3.72.78,5.31.96l3.24.35v9.61h-34.54Z"/>
          <path class="cls-54" d="M312.69,486.21v8.66l-2.68.28c-2.04.22-5.13.54-5.7,1.14-.61.64-.61,4.23-.61,5.76v39.41c0,1.39,0,5.07.59,5.68.54.56,3.54.88,5.73,1.12l2.68.29v8.66h-33.55v-8.66l2.68-.29c2.03-.22,5.09-.54,5.64-1.12.59-.62.59-4.3.59-5.68v-39.41c0-1.54,0-5.13-.61-5.78-.55-.59-3.6-.91-5.61-1.12l-2.69-.28v-8.66h33.54M313.69,485.21h-35.54v10.56l.9.09,2.69.28c1.18.12,4.25.44,4.97.82.14.34.35,1.46.35,5.09v39.41c0,3.59-.21,4.67-.34,4.99-.71.36-3.61.67-4.87.81h-.13s-2.68.3-2.68.3l-.89.1v10.56h35.55v-10.56l-.89-.1-2.68-.29h-.11c-1.4-.17-4.27-.48-4.98-.82-.12-.32-.33-1.4-.33-4.98v-39.41c0-3.61.21-4.73.35-5.07.7-.37,3.64-.69,4.92-.82l.14-.02,2.68-.28.9-.09v-10.56h0Z"/>
        </g>
        <g>
          <path class="cls-58" d="M315.12,557.71v-.5s-.01-9.15-.01-9.15l3.3-.3c1.79-.17,5.51-.52,6.07-1.08.22-.23.48-1.33.48-5.29v-39.41c0-4.2-.33-5.17-.52-5.37-.32-.33-2.07-.65-5.22-.94l-3.16-.3v-9.64h34.59v9.63l-3.16.32c-1.59.16-4.89.48-5.37.96-.16.16-.52,1-.52,5.36v40.36c0,2.85.21,3.66.31,3.88.18.08.82.28,2.61.31h.22c1.01.03,6.54.1,7.13.1,4.52,0,4.97-.49,6.44-2.11,1.84-1.92,3.84-5.3,5.49-9.29l1.18-2.85,9.33,2.53-.61,3.18c-.7,3.64-3.72,14.2-4.69,17.2l-.78,2.42h-53.1Z"/>
          <path class="cls-54" d="M350.14,486.22v8.68l-2.71.27c-2.14.21-5.07.5-5.67,1.1-.67.68-.67,4.33-.67,5.71v40.36c0,2.43.15,3.85.44,4.24,0,0,.38.4,2.97.45h.23c1,.03,6.54.1,7.13.1,4.74,0,5.26-.57,6.81-2.27,1.9-1.98,3.91-5.4,5.58-9.44l1.01-2.44,8.46,2.29-.52,2.73c-.7,3.65-3.75,14.28-4.67,17.14l-.67,2.07h-52.25s0-8.69,0-8.69l2.72-.25c2.31-.22,5.8-.54,6.5-1.23.63-.61.63-4.02.63-5.65v-39.41c0-1.38,0-5.03-.66-5.72-.59-.62-3.69-.92-5.54-1.09l-2.71-.26v-8.69h33.59M351.14,485.22h-35.59v10.6l.9.09,2.71.26c2.78.26,4.43.52,4.9.79.14.28.39,1.31.39,5.02v39.41c0,3.44-.19,4.6-.36,4.95-.7.44-4.22.77-5.73.92h-.13s-2.72.26-2.72.26l-.91.08v10.61h1.01s52.24-.01,52.24-.01h.73l.22-.69.67-2.07c.97-3.02,4-13.61,4.7-17.26l.52-2.73.17-.91-.89-.24-8.46-2.29-.85-.23-.34.81-1.01,2.44c-1.63,3.94-3.59,7.26-5.38,9.13-1.45,1.59-1.79,1.96-6.09,1.96-.59,0-6.1-.07-7.1-.1h-.26c-1.26-.02-1.9-.14-2.2-.21-.08-.36-.21-1.28-.21-3.48v-40.36c0-3.76.27-4.76.4-5.02.59-.36,3.7-.66,5.04-.79l2.71-.27.9-.09v-10.59h0Z"/>
        </g>
        <g>
          <path class="cls-63" d="M414.01,559.21c-27.44,0-39.94-19.11-39.94-36.87,0-22.4,17.16-38.04,41.74-38.04,7.01,0,12.92,1.14,16.83,1.89,1.06.2,1.92.37,2.58.47l2.72.4.26,2.74c.39,4.27,1.08,10.56,1.88,15.45l.53,3.28-9.69,2.08-.91-3.13c-1.85-6.33-3.92-9.25-7.63-10.77l-.13-.07c-1.96-.89-5.47-1.49-8.72-1.49-13.21,0-21.09,9.36-21.09,25.04,0,17.28,8.48,28.02,22.14,28.02,7.83,0,12.13-3.26,17.01-12.91l1.38-2.73,9.17,3.18-.92,3.2c-1.33,4.58-4,12.2-5.72,15.82l-.75,1.55-2.45.52c-3.47.75-10.59,2.28-17.78,2.35l-.5.02Z"/>
          <path class="cls-54" d="M415.81,484.8c6.95,0,12.84,1.13,16.74,1.88,1.04.2,1.92.37,2.6.47l2.33.34.22,2.35c.39,4.28,1.09,10.6,1.88,15.48l.45,2.81-8.77,1.88-.78-2.68c-1.9-6.5-4.05-9.51-7.92-11.09l-.1-.05c-2.03-.92-5.62-1.54-8.94-1.54-13.52,0-21.59,9.55-21.59,25.54,0,17.59,8.68,28.52,22.64,28.52,8.07,0,12.47-3.33,17.46-13.18l1.18-2.34,8.31,2.88-.79,2.74c-1.33,4.6-4,12.19-5.69,15.74l-.64,1.33-2.21.47c-3.53.76-10.86,2.34-18.18,2.34v.02c-27.1,0-39.44-18.85-39.44-36.37,0-22.1,16.96-37.54,41.24-37.54M415.81,483.8c-24.87,0-42.24,15.85-42.24,38.54,0,18,12.66,37.37,40.44,37.37h1v-.03c7.08-.13,13.98-1.62,17.38-2.35l2.22-.47.48-.1.21-.44.64-1.33c1.73-3.64,4.42-11.3,5.75-15.9l.79-2.74.26-.91-.9-.31-8.31-2.88-.83-.29-.39.78-1.18,2.34c-4.84,9.56-8.87,12.63-16.57,12.63-13.35,0-21.64-10.55-21.64-27.52,0-15.37,7.7-24.54,20.59-24.54,3.19,0,6.61.58,8.53,1.45l.07.03.03.02h.04c3.55,1.46,5.54,4.29,7.34,10.46l.78,2.68.26.89.91-.2,8.77-1.88.93-.2-.15-.94-.45-2.81c-.79-4.87-1.48-11.15-1.87-15.41l-.22-2.35-.07-.78-.78-.11-2.33-.34c-.64-.09-1.49-.26-2.48-.45h-.07c-3.93-.77-9.87-1.91-16.93-1.91h0Z"/>
        </g>
      </g>
    </g>
    <g id="gradient">
      <path class="cls-47" d="M320.33,423.29l2.39,6.27,3.65,3.76s-14.48,23.49-26.46,23.83c-11.97.34-15.51-9.69-15.51-9.69,0,0,15.74.57,35.92-24.18h0Z"/>
      <path class="cls-64" d="M338.54,436.07s-4.71-.15-6.84-1.06c0,0-16.27,22.96-24.02,26.91s6.39,8.82,11.71,5.93,16.27-17.18,19.16-31.78h-.01Z"/>
      <path class="cls-48" d="M343.86,436.07h5.78s-2.89,40.45-15.97,43.79c0,0-4.41,1.67-8.51-5.02-4.11-6.69,8.67-5.32,18.7-38.77h0Z"/>
      <path class="cls-45" d="M358.46,428.46l-3.5,3.65s-4.41,38.16-9.43,49.57l12.92,14.6,13.53-13.38s-10.49-44.09-9.88-51.09l-3.65-3.35h0Z"/>
      <path class="cls-59" d="M367.89,436.07s3.04,42.95,16.73,43.98c0,0,1.98,1.18,4.26-1.4s5.32-3.65,2.74-6.54c-2.58-2.89-14.44-22.66-17.18-35.12,0,0-.76-2.13-3.5-1.98s-3.04,1.06-3.04,1.06h-.01Z"/>
      <path class="cls-44" d="M378.07,436.07s14.52,46.22,33.91,29.04c0,0-22.5-19.77-25.09-27.83l-8.82-1.22h0Z"/>
      <path class="cls-68" d="M391.15,433.02s12.01,20.1,23.11,25.03c0,0,3.04,1.72,6.39-.4s11.71-8.21,11.71-8.21c0,0-22.66-7.75-34.21-22.81,0,0-3.8-.15-3.12,3.5,0,0-3.27.76-3.88,2.89h0Z"/>
      <path class="cls-61" d="M335.27,430.82s-4.93-8.57-2.17-18.02c2.17-7.41-6.02-4.47-7.75,3.42-.98,4.45,1.94,13.23,9.92,14.6h0Z"/>
      <path class="cls-70" d="M343.26,430.02s-1.37-13.8.46-19.04-6.39-7.41-7.18,0,2.01,16.76,6.73,19.04h-.01Z"/>
      <path class="cls-65" d="M347.7,429.11s5.7-2.28,6.27-11.97-9.92-12.32-6.84-2.28c3.08,10.04.57,14.25.57,14.25Z"/>
      <path class="cls-60" d="M381.94,430.82s4.93-8.57,2.17-18.02c-2.17-7.41,6.02-4.47,7.75,3.42.98,4.45-1.94,13.23-9.92,14.6h0Z"/>
      <path class="cls-67" d="M373.96,430.02s1.37-13.8-.46-19.04,6.39-7.41,7.18,0c.8,7.41-2.01,16.76-6.73,19.04h.01Z"/>
      <path class="cls-55" d="M369.51,429.11s-5.7-2.28-6.27-11.97,9.92-12.32,6.84-2.28-.57,14.25-.57,14.25Z"/>
      <path class="cls-69" d="M352.49,403.91s-.68-8.25-5.93-13.59-10.17-9.33-10.17-9.33c0,0-1.56,9.12,3.79,16.31s12.31,6.61,12.31,6.61Z"/>
      <path class="cls-56" d="M361.84,406.2s9.58-2.52,14.25-8.79c4.68-6.27,7.07-16.42,7.07-16.42,0,0-9.76,5.44-12.52,9.33-2.76,3.9-7.55,12.81-8.8,15.88h0Z"/>
      <path class="cls-46" d="M336.39,380.99c-2.07,2.51-2.72,12.32-2.83,17.79s1.71,3.88,1.71,3.88l4.91-3.88s-2.05-2.39-2.99-7.52c-.94-5.13-.8-10.27-.8-10.27h0Z"/>
      <path class="cls-50" d="M380.82,388.37s.92.27,1.12,4.08-2.03,9.15,0,10.42-5.5-.44-5.84-5.46c0,0,3.26-4.82,4.72-9.04Z"/>
      <g>
        <g>
          <path class="cls-40" d="M359.89,394.77s3.99-6.6,7.83-10.47c0,0-.55-.56-.9-1.47-.44-1.11-.57-2.72.9-4.47.73-.88,1.43-1.27,2.04-1.38,1.63-.3,2.71,1.38,2.71,1.38,0,0,11.93-9.13,15.32-17.34,3.39-8.21,4.06-8.89,3.84-15.73-.21-6.32,1-12.07,1.18-12.9.02-.07.03-.11.03-.11,0,0-2.39-4.65-2.4-7.7v-.03c0-.18,0-.35.04-.52v-.04s0-.1.02-.14c.07-.46.13-.89.17-1.31.02-.17.04-.34.04-.51.15-2.13-.2-3.91-1.81-5.71-.51-.57-1.44-1.42-2.53-2.55-2.34-2.41-5.41-6.07-6.57-10.83-.47-1.9-.63-3.99-.32-6.24,0,0,3.97-3.19,4.98-4.79.49-.78,1.16-2.13,1.01-3.14-.04-.28-.13-.53-.31-.73-.02-.03-.04-.04-.06-.06-.31-.32-.85-.53-1.69-.53h0c-.62,0-1.4.12-2.39.37,0,0,.13-.29.29-.73.33-.97.74-2.7.02-3.83-.05-.08-.11-.16-.17-.23,0,0,.13-.06.36-.18,1.53-.78,7.46-4.03,7.86-7.8,0,0-1.32.29-3.12.52h-.04c-2.73.36-6.53.58-8.38-.52-.13-.08-.28-.17-.43-.26-.99-.6-2.35-1.47-3.98-2.39-3.84-2.18-9.11-4.65-14.18-4.65"/>
          <path class="cls-12" d="M391.11,322.71l.95,3.88,1.56,6.39,1.18-.58,5.36-2.62c-1.52,1.22,0,6.24,0,6.24,43.61,2.72,87.36-50.72,88.02-51.53l-2.88,7.9c13.91-2.19,25.8-5.59,35.95-9.86.04-.02.06-.04.1-.04,8.37-3.54,15.55-7.67,21.72-12.25.02-.02.04-.04.06-.04,39.27-29.18,36.86-75.78,34.03-94.33-.76-5.03-1.55-7.99-1.55-7.99-20.53,102.17-109.47,116.77-109.47,116.77-20.75,35.58-65.68,33.53-65.68,33.53-1.34,1.28-2.64,2.2-3.81,2.86-1.62.92-3.02,1.35-4,1.54-.07.02-.14.04-.21.04-.84.15-1.33.13-1.33.13v-.04Z"/>
          <path class="cls-23" d="M502.64,303.78c28.59.15,75.72-27.22,86.97-39.69,6.83-7.57,8.96-26.11,9.58-39.52.39-8.68.16-15.21.16-15.21-11.86,48.95-91.69,82.56-91.69,82.56l-1.83,4.32-3.19,7.54h0Z"/>
          <path class="cls-28" d="M494.13,317.62c3.69,2.05,7.66,3.81,11.77,5.32h.02c2.16.8,4.36,1.52,6.59,2.17,22.02,6.47,46.42,6.48,55.81,4.36,9.26-2.08,16.77-11.75,19.81-16.24.96-1.4,1.47-2.3,1.47-2.3-21.01,6.14-53.55,5.49-67.07,4.9-3.9-.17-6.22-.34-6.22-.34l6.75-.53c1.32-.11,2.91-.23,4.81-.38h0c5.14-.4,12.55-.98,23.25-1.82,35.23-2.77,46.48-26.86,49.99-39.84,1.33-4.9,1.55-8.21,1.55-8.21-31.33,32.11-103.09,44.41-103.09,44.41-.63,1.17-1.21,2.2-1.73,3.08-2.49,4.22-3.74,5.43-3.74,5.43h.03Z"/>
          <path class="cls-27" d="M408.68,341.03l5.93,14.29c38.47-6.69,60.66-50.18,60.66-50.18-24.63,27.98-66.59,35.88-66.59,35.88h0Z"/>
          <path class="cls-39" d="M485.74,327.5s16.9,7.3,18.27,6.62c.58-.29,1.82-1.54,3.06-2.86,1.67-1.8,3.33-3.76,3.33-3.76l-19.12-5.37-1.97,1.9-3.57,3.47h0Z"/>
          <path class="cls-57" d="M493.06,342.79l.04.02s-.02-.02-.04-.03h0Z"/>
          <path class="cls-3" d="M478.66,335.06c2.99,1.59,5.37,2.86,7.25,3.87,5.6,2.99,6.91,3.71,7.16,3.85l.42-.31,7.78-5.95-18.47-6.28s-6.26,3.7-4.14,4.82Z"/>
          <polygon class="cls-26" points="465.9 342.79 477.29 352.36 486.9 347 489.56 345.52 474.36 337.53 470.92 339.67 465.9 342.79"/>
          <polygon class="cls-1" points="451.32 352.36 460.67 362.17 468.89 357.62 473.01 355.34 461.99 345.84 457.06 348.85 451.32 352.36"/>
          <path class="cls-9" d="M502.64,340.95s24.86,9.81,39.46,7.76c9.84-1.38,15.7-6.64,18.48-9.91,1.34-1.58,1.97-2.7,1.97-2.7-13.52,2-49.15-7.31-49.15-7.31l-4.83,5.47-5.92,6.68h0Z"/>
          <path class="cls-32" d="M484.85,355.33c2.72,1.82,31.02,12.32,37.18,12.32,4.56,0,12.68-6.76,16.58-10.26,1.37-1.22,2.22-2.05,2.22-2.05-9.5,1.82-42.28-10.38-42.28-10.38l-5.99,4.54-7.71,5.84h0Z"/>
          <path class="cls-11" d="M462.61,365.59c10.13,14.31,32.96,20.98,32.96,20.98,4.34.95,11.23-3.67,16.09-7.57,3.31-2.65,5.69-4.98,5.69-4.98-14.48-1.38-39.05-15.95-39.05-15.95l-5.2,2.49-10.49,5.02h0Z"/>
          <path class="cls-33" d="M437.64,353.56c8.84,22.87,28.75,42.37,36.27,43.96,7.53,1.6,16.34-5.06,16.34-5.06-.73-.13-1.55-.38-2.42-.75-14.11-5.96-44.71-41.99-44.71-41.99l-2.51,1.76-2.97,2.09h0Z"/>
          <path class="cls-25" d="M427.38,357.84s5.24,16.42,17.33,32.48c1.49,1.98,2.93,3.65,4.3,5.04,2.42,2.47,4.63,4.07,6.58,5.1,2.6,1.38,4.74,1.72,6.32,1.66,1.99-.05,3.09-.72,3.09-.72-4.74-1.58-15.92-19.47-23.54-32.49-4.47-7.63-7.71-13.58-7.71-13.58l-6.38,2.51h.01Z"/>
          <path class="cls-38" d="M418.94,360.8s6.61,23.2,15.28,36.96c8.66,13.77,24.56,8.31,24.56,8.31-7.16,1.07-14.78-8.17-21.03-18.73-1.46-2.47-2.85-5.02-4.14-7.52-5.51-10.71-9.2-20.62-9.2-20.62l-5.48,1.6h.01Z"/>
          <path class="cls-37" d="M445.17,346.43l4.11,4.33c2.03-1.12,3.98-2.26,5.87-3.46,1.97-1.22,3.87-2.49,5.69-3.79,30.39-21.59,40.44-50.45,40.44-50.45l-17.56,5.7c-5.81,18.43-19.82,32.7-29.26,40.65-1.53,1.28-2.93,2.4-4.16,3.35-3.13,2.39-5.13,3.66-5.13,3.66h0Z"/>
          <path class="cls-35" d="M418.25,403.91c7.45,9.06,16.12,6,16.12,6l-.03-.03c-8.55-10-16.05-30.23-21.03-46.18-3.96-12.68-6.32-22.67-6.32-22.67-3.71.44-5.78,0-5.78,0-.61,14.44,9.58,53.83,17.03,62.88h.01Z"/>
          <path class="cls-5" d="M396.51,394.4c4.21,6.75,10.02,8.72,12.87,9.28,1.07.21,1.72.23,1.72.23-3.8-4.93-10.03-35.51-9.91-38.1.13-2.58-3.47-6.61-3.47-6.61-.3.46-.59.94-.86,1.42-6.13,10.6-5.89,24.9-.36,33.78h0Z"/>
        </g>
        <g>
          <path class="cls-43" d="M360,394.39s-3.88-6.22-7.72-10.09c0,0,.55-.56.9-1.47.44-1.11.57-2.72-.9-4.47-.73-.88-1.43-1.27-2.04-1.38-1.63-.3-2.71,1.38-2.71,1.38,0,0-11.93-9.13-15.32-17.34s-4.06-8.89-3.84-15.73c.21-6.32-1-12.07-1.18-12.9-.02-.07-.03-.11-.03-.11,0,0,2.39-4.65,2.4-7.7v-.03c0-.18,0-.35-.04-.52v-.04s0-.1-.02-.14c-.07-.46-.13-.89-.17-1.31-.02-.17-.04-.34-.04-.51-.15-2.13.2-3.91,1.81-5.71.51-.57,1.44-1.42,2.53-2.55,2.34-2.41,5.41-6.07,6.57-10.83.47-1.9.63-3.99.32-6.24,0,0-3.97-3.19-4.98-4.79-.49-.78-1.16-2.13-1.01-3.14.04-.28.13-.53.31-.73.02-.03.04-.04.06-.06.31-.32.85-.53,1.69-.53h0c.62,0,1.4.12,2.39.37,0,0-.13-.29-.29-.73-.33-.97-.74-2.7-.02-3.83.05-.08.11-.16.17-.23,0,0-.13-.06-.36-.18-1.53-.78-7.46-4.03-7.86-7.8,0,0,1.32.29,3.12.52h.04c2.73.36,6.53.58,8.38-.52.13-.08.28-.17.43-.26.99-.6,2.35-1.47,3.98-2.39,3.84-2.18,9.11-4.65,14.18-4.65"/>
          <path class="cls-8" d="M328.89,322.71l-.95,3.88-1.56,6.39-1.18-.58-5.36-2.62c1.52,1.22,0,6.24,0,6.24-43.61,2.72-87.36-50.72-88.02-51.53l2.88,7.9c-13.91-2.19-25.8-5.59-35.95-9.86-.04-.02-.06-.04-.1-.04-8.37-3.54-15.55-7.67-21.72-12.25-.02-.02-.04-.04-.06-.04-39.27-29.18-36.86-75.78-34.03-94.33.76-5.03,1.55-7.99,1.55-7.99,20.53,102.17,109.47,116.77,109.47,116.77,20.75,35.58,65.68,33.53,65.68,33.53,1.34,1.28,2.64,2.2,3.81,2.86,1.62.92,3.02,1.35,4,1.54.07.02.14.04.21.04.84.15,1.33.13,1.33.13v-.04Z"/>
          <path class="cls-15" d="M217.36,303.78c-28.59.15-75.72-27.22-86.97-39.69-6.83-7.57-8.96-26.11-9.58-39.52-.39-8.68-.16-15.21-.16-15.21,11.86,48.95,91.69,82.56,91.69,82.56l1.83,4.32,3.19,7.54Z"/>
          <path class="cls-22" d="M225.87,317.62c-3.69,2.05-7.66,3.81-11.77,5.32h-.02c-2.16.8-4.36,1.52-6.59,2.17-22.02,6.47-46.42,6.48-55.81,4.36-9.26-2.08-16.77-11.75-19.81-16.24-.96-1.4-1.47-2.3-1.47-2.3,21.01,6.14,53.55,5.49,67.07,4.9,3.9-.17,6.22-.34,6.22-.34l-6.75-.53c-1.32-.11-2.91-.23-4.81-.38h0c-5.14-.4-12.55-.98-23.25-1.82-35.23-2.77-46.48-26.86-49.99-39.84-1.33-4.9-1.55-8.21-1.55-8.21,31.33,32.11,103.09,44.41,103.09,44.41.63,1.17,1.21,2.2,1.73,3.08,2.49,4.22,3.74,5.43,3.74,5.43h-.03Z"/>
          <path class="cls-14" d="M311.32,341.03l-5.93,14.29c-38.47-6.69-60.66-50.18-60.66-50.18,24.63,27.98,66.59,35.88,66.59,35.88h0Z"/>
          <path class="cls-34" d="M234.26,327.5s-16.9,7.3-18.27,6.62c-.58-.29-1.82-1.54-3.06-2.86-1.67-1.8-3.33-3.76-3.33-3.76l19.12-5.37,1.97,1.9,3.57,3.47Z"/>
          <path class="cls-49" d="M226.94,342.79l-.04.02s.02-.02.04-.03h0Z"/>
          <path class="cls-13" d="M241.34,335.06c-2.99,1.59-5.37,2.86-7.25,3.87-5.6,2.99-6.91,3.71-7.16,3.85l-.42-.31-7.78-5.95,18.47-6.28s6.26,3.7,4.14,4.82Z"/>
          <polygon class="cls-6" points="254.1 342.79 242.71 352.36 233.1 347 230.44 345.52 245.64 337.53 249.08 339.67 254.1 342.79"/>
          <polygon class="cls-4" points="268.68 352.36 259.33 362.17 251.11 357.62 246.99 355.34 258.01 345.84 262.94 348.85 268.68 352.36"/>
          <path class="cls-18" d="M217.36,340.95s-24.86,9.81-39.46,7.76c-9.84-1.38-15.7-6.64-18.48-9.91-1.34-1.58-1.97-2.7-1.97-2.7,13.52,2,49.15-7.31,49.15-7.31l4.83,5.47,5.92,6.68h0Z"/>
          <path class="cls-42" d="M235.15,355.33c-2.72,1.82-31.02,12.32-37.18,12.32-4.56,0-12.68-6.76-16.58-10.26-1.37-1.22-2.22-2.05-2.22-2.05,9.5,1.82,42.28-10.38,42.28-10.38l5.99,4.54,7.71,5.84h0Z"/>
          <path class="cls-10" d="M257.39,365.59c-10.13,14.31-32.96,20.98-32.96,20.98-4.34.95-11.23-3.67-16.09-7.57-3.31-2.65-5.69-4.98-5.69-4.98,14.48-1.38,39.05-15.95,39.05-15.95l5.2,2.49,10.49,5.02h0Z"/>
          <path class="cls-19" d="M282.36,353.56c-8.84,22.87-28.75,42.37-36.27,43.96-7.53,1.6-16.34-5.06-16.34-5.06.73-.13,1.55-.38,2.42-.75,14.11-5.96,44.71-41.99,44.71-41.99l2.51,1.76,2.97,2.09h0Z"/>
          <path class="cls-29" d="M292.62,357.84s-5.24,16.42-17.33,32.48c-1.49,1.98-2.93,3.65-4.3,5.04-2.42,2.47-4.63,4.07-6.58,5.1-2.6,1.38-4.74,1.72-6.32,1.66-1.99-.05-3.09-.72-3.09-.72,4.74-1.58,15.92-19.47,23.54-32.49,4.47-7.63,7.71-13.58,7.71-13.58l6.38,2.51h-.01Z"/>
          <path class="cls-36" d="M301.06,360.8s-6.61,23.2-15.28,36.96c-8.66,13.77-24.56,8.31-24.56,8.31,7.16,1.07,14.78-8.17,21.03-18.73,1.46-2.47,2.85-5.02,4.14-7.52,5.51-10.71,9.2-20.62,9.2-20.62l5.48,1.6h-.01Z"/>
          <path class="cls-41" d="M274.83,346.43l-4.11,4.33c-2.03-1.12-3.98-2.26-5.87-3.46-1.97-1.22-3.87-2.49-5.69-3.79-30.39-21.59-40.44-50.45-40.44-50.45l17.56,5.7c5.81,18.43,19.82,32.7,29.26,40.65,1.53,1.28,2.93,2.4,4.16,3.35,3.13,2.39,5.13,3.66,5.13,3.66h0Z"/>
          <path class="cls-20" d="M301.75,403.91c-7.45,9.06-16.12,6-16.12,6l.03-.03c8.55-10,16.05-30.23,21.03-46.18,3.96-12.68,6.32-22.67,6.32-22.67,3.71.44,5.78,0,5.78,0,.61,14.44-9.58,53.83-17.03,62.88h-.01Z"/>
          <path class="cls-17" d="M323.49,394.4c-4.21,6.75-10.02,8.72-12.87,9.28-1.07.21-1.72.23-1.72.23,3.8-4.93,10.03-35.51,9.91-38.1-.13-2.58,3.47-6.61,3.47-6.61.3.46.59.94.86,1.42,6.13,10.6,5.89,24.9.36,33.78h0Z"/>
        </g>
      </g>
    </g>
    <g id="shadows">
      <g>
        <g>
          <path class="cls-51" d="M360,308.95s3.67-8.67,3.67-15.81c0,0,.46-3.19,4.71-2.13s7.45-2.13,8.97-6.23c0,0-9.16,5.63-17.35,5.47"/>
          <path class="cls-51" d="M369.22,293.98s-3.19,1.29-3.35,4.49c0,0,2.51-3.88,4.03-3.35l-.68-1.14h0Z"/>
          <path class="cls-51" d="M381.08,305.99s3.42,11.33,5.7,13.23c0,0-6.08-7.83-6.31-12.54l.61-.68h0Z"/>
          <path class="cls-51" d="M375.98,309.85s2.58,10.51,8.13,14.39c0,0-7.22-9.07-6.92-15l-1.22.61h.01Z"/>
          <path class="cls-51" d="M371.88,312.22s1.14,14.06,7.6,18.25c0,0-6.61-9.73-6.53-18.55l-1.07.3Z"/>
          <path class="cls-51" d="M381.99,295.19s-6.31,7.53-10.11,8.21-5.17-1.52-6.99,2.05c-1.82,3.57-2.85,5.25-4.88,6.16v26.68s1.08-17.64,4.12-22.35,17.71-14.29,17.87-20.75h-.01Z"/>
          <path class="cls-51" d="M360,361.79s5.72-12.39,9.98-15.43c0,0,3.19,1.52,1.52,6.23,0,0,5.78-3.5,9.2-15.59,0,0,2.74-1.29,4.49,4.33,0,0,2.13-12.09,6.23-16.19,0,0,1.22,14.52-2.81,17.94-4.03,3.42-3.88.61-4.18,4.49s-4.49,13.15-10.64,15.59c0,0-1.98-1.67-3.65.46-1.67,2.13-5.13,7.91-10.13,7.98v-9.81h-.01Z"/>
        </g>
        <g>
          <path class="cls-51" d="M360,308.95s-3.67-8.67-3.67-15.81c0,0-.46-3.19-4.71-2.13s-7.45-2.13-8.97-6.23c0,0,9.16,5.63,17.35,5.47"/>
          <path class="cls-51" d="M350.78,293.98s3.19,1.29,3.35,4.49c0,0-2.51-3.88-4.03-3.35l.68-1.14h0Z"/>
          <path class="cls-51" d="M338.92,305.99s-3.42,11.33-5.7,13.23c0,0,6.08-7.83,6.31-12.54l-.61-.68h0Z"/>
          <path class="cls-51" d="M344.02,309.85s-2.58,10.51-8.13,14.39c0,0,7.22-9.07,6.92-15l1.22.61h-.01Z"/>
          <path class="cls-51" d="M348.12,312.22s-1.14,14.06-7.6,18.25c0,0,6.61-9.73,6.53-18.55l1.07.3Z"/>
          <path class="cls-51" d="M338.01,295.19s6.31,7.53,10.11,8.21,5.17-1.52,6.99,2.05c1.82,3.57,2.85,5.25,4.88,6.16v26.68s-1.08-17.64-4.12-22.35-17.71-14.29-17.87-20.75h.01Z"/>
          <path class="cls-51" d="M360,361.79s-5.72-12.39-9.98-15.43c0,0-3.19,1.52-1.52,6.23,0,0-5.78-3.5-9.2-15.59,0,0-2.74-1.29-4.49,4.33,0,0-2.13-12.09-6.23-16.19,0,0-1.22,14.52,2.81,17.94s3.88.61,4.18,4.49,4.49,13.15,10.64,15.59c0,0,1.98-1.67,3.65.46s5.13,7.91,10.13,7.98v-9.81h.01Z"/>
        </g>
      </g>
    </g>
    <g id="Lights">
      <g>
        <g>
          <path class="cls-53" d="M360,266.84v47.33s.46-1.41,1.2-2.03c2.06-1.7,6.21-7,8.27-7.59,2.79-.8,3.69.82,7.49-3.52,1.21-4.31,8.51-8.85,8.59-11.33.02-.29,0-.93-.22-1.12-.02-.03-.33-.46-.35-.48-.15-.12-.32-.28-.57-.35-.37-.1-1.47.03-1.79-.03l-1.3.16c-.95-.21.01-.45.12-.88-.3-1.17-.26-.58.32-2.98-.21-.45-.31-1.07-.21-1.32.06-.15,1.07-.35,1.13-.47,1.55-1.57,1.45-.55,4.26-2.86,1.54-3.06,3.53-3.86.75-3.81h-.04c-.64.02-1.53.07-2.72.16-2.32.16-4.31.71-5.91.06-1.86-.75-3.18-1.76-3.9-2.39-.37-.33-.58-.55-.58-.55,0,0-8.69-5.58-14.51-5.01l-.02-.99Z"/>
          <path class="cls-53" d="M360,341.42v17.45s.44-.63,1.16-1.58c2.5-3.39,8.22-10.99,8.64-10.28.53.91,1.07,6.39,1.07,6.39,0,0,2.7,1.48,4-2.51,1.3-3.99,5.18-10.72,5.18-10.72l1.73,1.37.97.57,3.57-2.97,4.02-12.54.19-.57s.11-.55.16-1.43v-.03c0-.18,0-.35.04-.52v-.04c.02-.43.02-.9-.02-1.41-.09-1.61-.44-3.52-1.48-5.12-.59-.91-1.9-1.62-2.85-3.14-2.75-4.39-7.81-9.44-7.56-15.62,0,0-.31,2.7-.2,6.24.11,3.96,2.74,6.97,4.9,10.46,4.1,6.61-15.33,16.99-18.67,19.96-1.68,1.48-2.88,2.99-3.67,4.14-.8,1.14-1.16,1.91-1.16,1.91h0Z"/>
          <path class="cls-53" d="M360,370.5v23.89s.46-.59,1.23-1.65c1.64-2.25,1.88-4.07,6.18-8.51-3.54-6.32,3.83-9.38,5.09-6.38,2.43-5.32,3.56-11.91,3.73-17.15,0,0-8.49,9.58-15.01,9.87-.42.02-.83,0-1.23-.06h.01Z"/>
          <path class="cls-53" d="M440.6,351.47c4.65,11.59,32.63,36.62,35.41,38.56,2.13,1.48,8.25,1.69,11.81,1.67-14.11-5.96-44.71-41.99-44.71-41.99l-2.51,1.76h0Z"/>
          <path class="cls-53" d="M473.1,360.57c13.69,9.44,28.92,18.86,32.22,19.21,1.78.2,4.03-.16,6.34-.78,3.31-2.65,5.69-4.98,5.69-4.98-14.48-1.38-39.05-15.95-39.05-15.95l-5.2,2.49h0Z"/>
          <path class="cls-53" d="M457.06,348.85c3.27,2.59,7.39,5.64,11.84,8.77l4.12-2.28-11.02-9.5-4.93,3.01h-.01Z"/>
          <path class="cls-53" d="M450.29,342.77c.86,1.08,2.56,2.64,4.85,4.54,1.97-1.22,3.87-2.49,5.69-3.79-3.08-1.95-5.32-3.4-6.38-4.1l-4.16,3.35Z"/>
          <path class="cls-53" d="M435.07,371.58s9.13,16.61,13.94,23.78c.23.35.46.67.66.96,1.3,1.87,3.48,3.19,5.92,4.14,2.04.8,4.27,1.31,6.32,1.66,1.99-.05,3.09-.72,3.09-.72-4.74-1.58-15.92-19.47-23.54-32.49v.02c-.69,1-6.39,2.65-6.39,2.65Z"/>
          <path class="cls-53" d="M425.6,402.02c3.12,4.81,6.29,6.95,8.75,7.87-8.55-10-16.05-30.23-21.03-46.18-.71,10.27,6.44,29.28,12.28,38.31Z"/>
          <path class="cls-53" d="M396.87,360.62c1.03,4.42,3.35,14.68,6.05,28.17,1.68,8.43,4.23,12.72,6.47,14.89,1.07.21,1.72.23,1.72.23-3.8-4.93-10.03-35.51-9.91-38.1.13-2.58-3.47-6.61-3.47-6.61-.3.46-.59.94-.86,1.42h0Z"/>
          <path class="cls-53" d="M401.89,328.81s35.35,3.88,68.19-32.38c0,0,13.45-15.96,30.34-15.96,15.46,0,76.88-47.93,76.76-104.61-.76-5.03-1.55-7.99-1.55-7.99-20.53,102.17-109.47,116.77-109.47,116.77-20.75,35.58-65.68,33.53-65.68,33.53-1.34,1.28-2.64,2.2-3.81,2.86-.31,2.84.6,6.02,5.23,7.8v-.02Z"/>
          <path class="cls-53" d="M521.36,282.47c8.37-3.54,15.55-7.67,21.72-12.25-7.9,5.06-15.57,9.21-21.72,12.25Z"/>
          <path class="cls-53" d="M505.83,296.24c.04.12.05.18.05.18,53.77-6.21,81.94-49.01,93.3-71.85.39-8.68.16-15.21.16-15.21-11.86,48.95-91.69,82.56-91.69,82.56l-1.83,4.32h.01Z"/>
          <path class="cls-53" d="M497.87,312.19c9.23-1.21,41.65-6.29,69.75-17.37,15.11-5.96,26.13-14.56,33.52-21.91,1.33-4.9,1.55-8.21,1.55-8.21-31.33,32.11-103.09,44.41-103.09,44.41-.63,1.17-1.21,2.2-1.73,3.08Z"/>
          <path class="cls-53" d="M523.08,314.96c1.32-.11,2.91-.23,4.81-.38-2.63-.14-4.09-.29-4.09-.29,0,0-.36.26-.71.67h0Z"/>
          <path class="cls-53" d="M549.06,321.59c19.49,0,31.87-4.39,39.07-8.35.96-1.4,1.47-2.3,1.47-2.3-21.01,6.14-53.55,5.49-67.07,4.9-.83,2.14,1.48,5.76,26.52,5.76h.01Z"/>
          <path class="cls-53" d="M508.56,334.27c28.21,6.99,44.47,5.95,52.02,4.54,1.34-1.58,1.97-2.7,1.97-2.7-13.52,2-49.15-7.31-49.15-7.31l-4.83,5.47h0Z"/>
          <path class="cls-53" d="M492.56,349.49c5.52,2.17,20.94,7.95,31.24,9.08,5.31.59,10.52-.14,14.81-1.19,1.37-1.22,2.22-2.05,2.22-2.05-9.5,1.82-42.28-10.38-42.28-10.38l-5.99,4.54h0Z"/>
          <path class="cls-53" d="M493.06,342.79l.04.02s-.02-.02-.04-.03h0Z"/>
          <path class="cls-53" d="M485.91,338.93c5.6,2.99,6.91,3.71,7.16,3.85l.42-.31-7.58-3.54h0Z"/>
          <polygon class="cls-53" points="470.92 339.67 486.9 347 489.56 345.52 474.36 337.53 470.92 339.67"/>
          <path class="cls-53" d="M505.92,322.95c2.16.8,4.36,1.52,6.59,2.17.07-.19.11-.29.11-.29,0,0-2.97-.85-6.7-1.88h0Z"/>
        </g>
        <g>
          <path class="cls-53" d="M360,267.84v46.33s-.46-1.41-1.2-2.03c-2.06-1.7-6.21-8-8.27-8.59-2.79-.8-3.43,1.96-7.23-2.38-1.32-3.45-8.58-9.01-8.66-11.49-.02-.29-.35-.62-.13-.81.02-.03.26-.47.28-.49.15-.12,0-.38.26-.45.37-.1.28-.28.6-.34l.54-.14c.95-.21,1.43.4,1.87.31,1.04-.21.96-1,.38-3.4-.09-.36.51-1.08.41-1.33-.06-.15-1.14-.55-1.2-.67-.93-1.75-3.09-1.77-5.56-3.99-1.54-3.06-2.53-2.86.25-2.81h.04c.64.02,1.53.07,2.72.16,2.32.16,4.31.71,5.91.06,1.86-.75,3.18-1.76,3.9-2.39.37-.33.58-.55.58-.55,0,0,8.69-5.58,14.51-5.01h.02Z"/>
          <path class="cls-53" d="M360,341.42v17.45s-.44-.63-1.16-1.58c-2.5-3.39-8.22-10.99-8.64-10.28-.53.91-1.07,6.39-1.07,6.39,0,0-2.7,1.48-4-2.51-1.3-3.99-5.18-10.72-5.18-10.72l-1.73,1.37-.97.57-3.57-2.97-4.02-12.54-.19-.57s-.11-.55-.16-1.43v-.03c0-.18,0-.35-.04-.52v-.04c-.02-.43-.02-.9.02-1.41.09-1.61.44-3.52,1.48-5.12.59-.91,2.44-2.17,3.39-3.69,3.27-3.7,6.61-6.08,6.36-12.26,0,0,.31,2.7.2,6.24-.11,3.96-2.08,4.16-4.24,7.65-4.1,6.61,15.33,16.99,18.67,19.96,1.68,1.48,2.88,2.99,3.67,4.14.8,1.14,1.16,1.91,1.16,1.91h0Z"/>
          <path class="cls-53" d="M360,370.5v23.89s-.46-.59-1.23-1.65c-1.64-2.25-2.24-3.62-6.39-8.56,1.18-.59,2.46-8.38-4.13-7.19-2.43-5.32-4.31-11.05-4.48-16.29,0,0,8.49,9.58,15.01,9.87.42.02.83,0,1.23-.06h-.01Z"/>
          <path class="cls-53" d="M279.4,351.47c-4.65,11.59-32.63,36.62-35.41,38.56-2.13,1.48-8.25,1.69-11.81,1.67,14.11-5.96,44.71-41.99,44.71-41.99l2.51,1.76h0Z"/>
          <path class="cls-53" d="M246.9,360.57c-13.69,9.44-28.92,18.86-32.22,19.21-1.78.2-4.03-.16-6.34-.78-3.31-2.65-5.69-4.98-5.69-4.98,14.48-1.38,39.05-15.95,39.05-15.95l5.2,2.49h0Z"/>
          <path class="cls-53" d="M262.94,348.85c-3.27,2.59-7.39,5.64-11.84,8.77l-4.12-2.28,11.02-9.5,4.93,3.01h.01Z"/>
          <path class="cls-53" d="M269.71,342.77c-.86,1.08-2.56,2.64-4.85,4.54-1.97-1.22-3.87-2.49-5.69-3.79,3.08-1.95,5.32-3.4,6.38-4.1l4.16,3.35Z"/>
          <path class="cls-53" d="M284.93,371.58s-9.13,16.61-13.94,23.78c-.23.35-.46.67-.66.96-1.3,1.87-3.48,3.19-5.92,4.14-2.04.8-4.27,1.31-6.32,1.66-1.99-.05-3.09-.72-3.09-.72,4.74-1.58,15.92-19.47,23.54-32.49v.02c.69,1,6.39,2.65,6.39,2.65Z"/>
          <path class="cls-53" d="M294.4,402.02c-3.12,4.81-6.29,6.95-8.75,7.87,8.55-10,16.05-30.23,21.03-46.18.71,10.27-6.44,29.28-12.28,38.31Z"/>
          <path class="cls-53" d="M323.13,360.62c-1.03,4.42-3.35,14.68-6.05,28.17-1.68,8.43-4.23,12.72-6.47,14.89-1.07.21-1.72.23-1.72.23,3.8-4.93,10.03-35.51,9.91-38.1-.13-2.58,3.47-6.61,3.47-6.61.3.46.59.94.86,1.42h0Z"/>
          <path class="cls-53" d="M318.11,328.81s-35.35,3.88-68.19-32.38c0,0-13.45-15.96-30.34-15.96-15.46,0-76.88-47.93-76.76-104.61.76-5.03,1.55-7.99,1.55-7.99,20.53,102.17,109.47,116.77,109.47,116.77,20.75,35.58,65.68,33.53,65.68,33.53,1.34,1.28,2.64,2.2,3.81,2.86.31,2.84-.6,6.02-5.23,7.8v-.02Z"/>
          <path class="cls-53" d="M198.64,282.47c-8.37-3.54-15.55-7.67-21.72-12.25,7.9,5.06,15.57,9.21,21.72,12.25Z"/>
          <path class="cls-53" d="M214.17,296.24c-.04.12-.05.18-.05.18-53.77-6.21-81.94-49.01-93.3-71.85-.39-8.68-.16-15.21-.16-15.21,11.86,48.95,91.69,82.56,91.69,82.56l1.83,4.32h0Z"/>
          <path class="cls-53" d="M222.13,312.19c-9.23-1.21-41.65-6.29-69.75-17.37-15.11-5.96-26.13-14.56-33.52-21.91-1.33-4.9-1.55-8.21-1.55-8.21,31.33,32.11,103.09,44.41,103.09,44.41.63,1.17,1.21,2.2,1.73,3.08h0Z"/>
          <path class="cls-53" d="M196.92,314.96c-1.32-.11-2.91-.23-4.81-.38,2.63-.14,4.09-.29,4.09-.29,0,0,.36.26.71.67h0Z"/>
          <path class="cls-53" d="M170.94,321.59c-19.49,0-31.87-4.39-39.07-8.35-.96-1.4-1.47-2.3-1.47-2.3,21.01,6.14,53.55,5.49,67.07,4.9.83,2.14-1.48,5.76-26.52,5.76h0Z"/>
          <path class="cls-53" d="M211.44,334.27c-28.21,6.99-44.47,5.95-52.02,4.54-1.34-1.58-1.97-2.7-1.97-2.7,13.52,2,49.15-7.31,49.15-7.31l4.83,5.47h0Z"/>
          <path class="cls-53" d="M227.44,349.49c-5.52,2.17-20.94,7.95-31.24,9.08-5.31.59-10.52-.14-14.81-1.19-1.37-1.22-2.22-2.05-2.22-2.05,9.5,1.82,42.28-10.38,42.28-10.38l5.99,4.54Z"/>
          <path class="cls-53" d="M226.94,342.79l-.04.02s.02-.02.04-.03h0Z"/>
          <path class="cls-53" d="M234.09,338.93c-5.6,2.99-6.91,3.71-7.16,3.85l-.42-.31,7.58-3.54Z"/>
          <polygon class="cls-53" points="249.08 339.67 233.1 347 230.44 345.52 245.64 337.53 249.08 339.67"/>
          <path class="cls-53" d="M214.08,322.95c-2.16.8-4.36,1.52-6.59,2.17-.07-.19-.11-.29-.11-.29,0,0,2.97-.85,6.7-1.88Z"/>
        </g>
      </g>
      <path class="cls-53" d="M354.18,416.9c-.05.96-.16,1.84-.3,2.65-1.59-.52-3.98-.98-5.66-1.61-.22-1.03-.51-2.14-.88-3.33-3.08-10.03,7.41-7.41,6.84,2.29h0Z"/>
      <path class="cls-53" d="M343.91,410.74c-.76,2.18-.96,5.83-.95,9.35-3.6-1.87-5.43-3.75-6.34-5.49-.06-1.31-.03-2.62.11-3.86.79-7.41,9-5.24,7.18,0h0Z"/>
      <path class="cls-53" d="M333.31,412.57c-1,3.41-.99,6.72-.57,9.53-4.31-.76-6.38-2.55-7.36-4.57,0-.55.07-1.07.18-1.54,1.73-7.89,9.92-10.84,7.75-3.42h0Z"/>
      <path class="cls-53" d="M370.28,414.62c-.24.79-.45,1.55-.63,2.26-1.68.32-4.1,2.3-5.68,3.74-.27-1.1-.46-2.33-.54-3.72-.57-9.69,9.92-12.32,6.84-2.29h.01Z"/>
      <path class="cls-53" d="M380.72,417.38c-1.91-.7-4.47-.53-6.11-.3-.1-2.47-.36-4.78-.9-6.33-1.82-5.24,6.39-7.41,7.18,0,.23,2.13.16,4.41-.17,6.64h0Z"/>
      <path class="cls-53" d="M391.97,420.36l-6.83-1.24c.05-2.06-.17-4.28-.83-6.55-2.16-7.41,6.02-4.47,7.75,3.42.27,1.21.24,2.75-.09,4.37h0Z"/>
      <path class="cls-53" d="M322.91,429.27c-4.07,5.06-15.63,18.67-23.14,20.24-5.78,1.21-11.33-.07-14.68-1.21-.34-.66-.48-1.08-.48-1.08,0,0,15.73.57,35.92-24.17l2.38,6.22h0Z"/>
      <path class="cls-53" d="M333.52,435.25c-2.75,5.2-16.13,26.54-18.34,27.95-1.55.98-6.18,1.31-9.5,1.43-.29-.96.29-1.98,2.2-2.96,7.75-3.95,24.02-26.91,24.02-26.91.45.19,1.01.35,1.62.48h0Z"/>
      <path class="cls-53" d="M344.52,435.83c-.46,6.15-5.9,21.11-9.96,29.99-2.86,6.26-5.88,8.75-8.43,9.92-.26-.35-.52-.73-.77-1.14-4.1-6.69,8.67-5.32,18.71-38.77h.46-.01Z"/>
      <path class="cls-53" d="M369.6,472.37c-.57.53-1.3,1-2.18,1.26-2.97.88-8.66,7.55-8.66,7.55-2.5-5.72-9.08-8.78-10.21-9.27,3.67-15.61,6.46-39.77,6.46-39.77l3.5-3.64,3.64,3.34c-.42,4.8,4.39,27.03,7.45,40.54h0Z"/>
      <path class="cls-53" d="M391.64,475.94c-1.81-.16-4.32-.96-6.79-3.62-4.08-4.38-10.49-30.64-12.07-37.33,1.4.53,1.84,1.75,1.84,1.75,2.74,12.47,14.6,32.24,17.19,35.12,1.61,1.8,1.04,2.89-.17,4.07h0Z"/>
      <path class="cls-53" d="M412.18,464.87c-.85.75-1.69,1.38-2.52,1.9-2.93-.45-6.97-2.54-11.01-7.11-3.55-4.01-11.27-17.97-13.98-22.95l2.42.33c2.58,8.06,25.08,27.83,25.08,27.83h.01Z"/>
      <path class="cls-53" d="M432.55,449.21s-.34.25-.91.66c-4.17.44-10.51.89-14.52.13-4.82-.92-16.49-13.88-21.9-20.16-.64-3.59,3.13-3.44,3.13-3.44,11.55,15.05,34.2,22.81,34.2,22.81h0Z"/>
    </g>
  </g>
</svg>